# 3ds Max Wavefront OBJ Exporter v0.97b - (c)2007 guruware
# File Created: 17.09.2015 17:34:06

mtllib muntanya.mtl

#
# object Pyramid001
#

v  7.9761 136.0968 -50.2247
v  7.7802 134.9638 -50.4516
v  7.9549 135.4252 -50.3592
v  13.5204 72.7994 -77.2439
v  -4.5949 44.7437 -91.9955
v  30.6353 51.2735 -84.3778
v  3.6749 0.0050 -77.4793
v  -1.3478 0.0050 -82.7303
v  29.6410 0.0050 -95.0693
v  3.7225 0.0025 -90.8115
v  -5.9427 0.0050 -87.5340
v  -10.7514 0.0050 -112.4521
v  19.7443 0.0025 -105.2562
v  22.0125 0.0050 -108.0316
v  22.0816 0.0025 -107.9682
v  19.8173 0.0025 -105.3306
v  -15.5602 0.0050 -77.4793
v  -2.6186 61.6296 -81.7488
v  7.8005 134.9543 -50.6134
v  -7.2532 35.8299 -85.6594
v  8.0432 135.6366 -50.3722
v  -11.8924 10.0048 -89.5738
v  -6.0426 0.6339 -111.5409
v  -10.6510 0.7351 -112.1183
v  43.8283 104.8052 -88.3688
v  80.1746 0.0000 -87.1744
v  81.1494 0.0000 -128.9553
v  49.5500 0.0000 -117.6918
v  35.0107 24.1257 -106.2287
v  32.6286 56.3669 -65.2342
v  40.5438 19.7144 -60.9483
v  44.5262 21.7792 -64.7615
v  35.0227 57.5014 -77.9973
v  32.8649 32.4786 -86.8443
v  28.3907 31.1184 -87.3252
v  9.3306 139.2557 -49.0926
v  10.3178 123.9529 -54.5030
v  36.5581 -0.0000 -19.1920
v  -25.0824 65.8385 -19.6388
v  -16.3759 0.0000 -4.3326
v  8.0432 135.6365 -50.3722
v  1.8515 13.0147 -112.8065
v  3.0388 1.3656 -120.2663
v  -3.6758 -0.0000 -122.5725
v  -17.5726 0.0000 -125.4754
v  -41.2952 0.0000 -91.0489
v  -44.1312 -0.0000 -86.9335
v  -41.3927 1.2419 -87.0087
v  28.7031 31.4127 -87.4715
v  33.5069 34.7213 -88.6233
v  -42.0316 0.0000 -86.1317
v  -44.1253 0.0000 -72.1493
v  -38.0368 22.9233 -50.2486
v  33.7745 37.0313 -88.1985
v  -58.0477 0.0000 -59.7468
v  -56.9336 -0.0000 -44.7178
v  -56.6623 0.3497 -45.0313
v  -25.4420 64.1590 -21.8216
v  -42.0730 17.1462 -39.0601
v  -11.1794 0.0000 18.6582
v  -25.2570 101.9376 -7.6832
v  -63.6808 0.4291 -44.8493
v  -60.9470 0.0000 31.4211
v  -63.5579 -0.0000 -44.4809
v  -60.9627 -0.0000 30.9873
v  72.3756 0.0000 -45.4093
v  67.8872 0.0000 -77.2636
v  40.0161 0.0000 -35.7422
v  3.1160 0.6086 -120.7511
v  28.9006 0.0000 -115.7676
v  36.5581 0.0000 -19.1920
v  -36.2799 0.0000 -98.3273
v  -43.9593 0.0000 -87.1829
v  -35.6668 0.0000 -99.2170
v  -3.6758 0.0000 -122.5725
v  61.6069 0.0000 -107.9915
v  48.9205 0.0000 -117.4674
v  52.9534 0.0000 -104.5459
v  67.9346 0.0000 -76.9270
v  68.5826 0.0000 -72.3282
v  -13.8166 11.7020 -94.1900
v  -36.2799 -0.0000 -98.3273
v  -40.2054 0.0000 -98.3273
v  7.8005 134.9542 -50.6134
v  28.1189 50.9719 -82.7400
v  27.9474 56.7147 -81.3508
v  -13.6283 0.3418 -91.0385
v  34.3587 42.0752 -87.2709
v  34.3654 42.1331 -87.2603
v  -8.5530 0.0050 -79.8613
v  -3.1520 0.0025 -84.6137
v  -7.7601 0.0025 -80.4593
v  -23.7499 1.0134 -113.3293
v  -21.3589 1.0342 -116.7341
v  -12.7904 5.4570 -115.2842
v  34.7555 45.5015 -86.6408
v  -7.7027 0.0000 -80.3941
v  19.8869 -0.0000 -105.2679
v  -25.0229 1.0979 -116.1327
v  -21.3663 3.5783 -108.7365
v  28.6235 -0.2136 -103.1543
v  49.0684 0.0000 -117.3569
v  37.8217 0.0050 -126.4473
v  49.5470 0.0050 -117.6894
v  28.6887 0.0050 -115.8086
v  -0.6622 0.0000 -83.1975
v  29.6177 0.0000 -95.2542
v  62.3790 0.0050 -108.1048
v  -22.2453 1.0300 -115.4608
v  -22.3066 1.0293 -115.3740
v  -23.0174 1.0215 -114.3670
v  -21.7911 1.0321 -116.1132
v  -22.1250 1.0306 -115.6336
v  34.7663 44.6016 -87.4655
v  -21.1641 1.1347 -116.7012
# 115 vertices

vn 0.0000 -0.1964 0.9805
vn 0.1226 0.3987 -0.9088
vn 0.0000 -1.0000 -0.0000
vn -0.0002 -1.0000 -0.0001
vn -0.0002 -1.0000 -0.0002
vn -0.0001 -1.0000 -0.0001
vn 0.0062 -0.9989 -0.0462
vn 0.0023 -0.9998 -0.0175
vn -0.9717 0.1948 -0.1336
vn 0.5516 -0.1805 0.8143
vn 0.9445 0.3278 0.0220
vn -0.3261 0.2382 -0.9148
vn 0.6123 0.2210 0.7591
vn -0.0000 0.3333 -0.9428
vn 0.0000 0.3333 -0.9428
vn 0.2616 0.2512 0.9319
vn -0.9748 0.1442 -0.1700
vn 0.9528 0.2290 0.1991
vn -0.9169 0.3747 -0.1374
vn 0.1716 0.5436 -0.8216
vn -0.4031 0.8720 -0.2778
vn -0.2727 0.6446 0.7142
vn -0.9169 0.3747 -0.1373
vn -0.7636 0.6432 0.0566
vn -0.4969 0.6648 -0.5578
vn 0.9725 0.0775 -0.2198
vn -0.9389 0.3424 0.0356
vn -0.0203 0.3505 -0.9363
vn 0.2389 0.2737 0.9317
vn -0.9680 -0.2487 0.0333
vn -0.0270 -0.6556 -0.7546
vn 0.6523 0.7524 -0.0919
vn 0.1817 0.7727 0.6082
vn -0.0270 -0.6557 -0.7546
vn -0.0000 -1.0000 -0.0000
vn 0.0000 -1.0000 0.0000
vn -0.0000 -1.0000 0.0000
vn -0.9976 0.0597 0.0361
vn -0.0667 -0.9977 -0.0100
vn -0.9748 0.1443 -0.1702
vn -0.0009 -1.0000 -0.0003
vn -0.0004 -1.0000 -0.0005
vn -0.0035 -1.0000 -0.0013
vn -0.9048 0.0998 0.4139
vn -0.0026 -1.0000 0.0025
vn -0.0038 -1.0000 0.0034
vn -0.0193 -0.9996 -0.0214
vn -0.0194 -0.9996 -0.0207
vn -0.0199 -0.9996 -0.0187
vn 0.0054 -1.0000 -0.0072
vn 0.0078 -0.9999 0.0092
vn -0.0059 -0.9999 -0.0117
vn -0.0202 -0.9996 -0.0174
vn 0.0088 -0.9997 0.0236
vn 0.0095 -0.9997 0.0246
vn 0.0102 -0.9996 0.0257
vn 0.0065 -1.0000 0.0003
vn -0.0196 -0.9996 -0.0201
vn -0.0198 -0.9996 -0.0194
vn -0.0202 -0.9996 -0.0175
vn 0.4807 0.5955 -0.6436
vn 0.3618 -0.2090 0.9085
vn 0.3617 -0.2090 0.9086
vn -0.1289 0.5254 -0.8410
# 64 vertex normals

vt 0.5000 1.0000 0.0000
vt 0.4958 0.9917 0.0000
vt 0.5025 0.9951 0.0000
vt 0.4738 0.5349 0.0000
vt 0.8356 0.3287 0.0000
vt 0.1884 0.3767 0.0000
vt 1.0000 1.0000 0.0000
vt 0.7389 0.7389 0.0000
vt 1.0000 0.3613 0.0000
vt 0.5955 0.4045 0.0000
vt 0.5000 0.5000 0.0000
vt 0.0000 0.0000 0.0000
vt 0.6040 0.0624 0.0000
vt 0.5948 0.0000 0.0000
vt 0.5949 0.0003 0.0000
vt 0.6038 0.0607 0.0000
vt 0.0000 1.0000 0.0000
vt 0.1790 0.3287 0.0000
vt 0.3105 0.4528 0.0000
vt 0.4998 0.9916 0.0000
vt 0.4454 0.2632 0.0000
vt 1.0000 0.0000 0.0000
vt 0.4976 0.9951 0.0000
vt 0.5004 0.9966 0.0000
vt 0.5043 0.9917 0.0000
vt 1.0217 0.0000 0.0000
vt 0.5803 0.0735 0.0000
vt 0.9138 0.0046 0.0000
vt 0.4052 0.0000 0.0000
vt 0.9973 0.0054 0.0000
vt 0.0000 0.5000 0.0000
vt -0.5000 0.0000 0.5000
vt 0.5000 0.0000 0.5000
vt 0.0000 0.5000 0.5000
vt 0.0000 -0.1479 0.5000
vt 0.1151 -0.3849 0.3849
vt 0.5000 0.0000 0.0000
vt 0.2689 -0.2311 -0.2311
vt 0.0941 -0.1354 -0.4059
vt 0.1039 -0.0677 -0.3961
vt 0.2065 0.2935 0.2935
vt 0.1166 0.2760 0.3834
vt 0.1117 0.2283 0.3883
vt 0.4451 0.0140 0.0549
vt 0.0025 0.4975 -0.4975
vt 0.2364 -0.2636 -0.2636
vt 0.0011 -0.0733 -0.4989
vt -0.0588 0.2743 -0.2257
vt -0.2311 0.2689 -0.2311
vt 0.1317 0.2028 0.2972
vt 0.2935 0.2065 0.2935
vt 0.0130 0.4870 -0.0130
vt 0.0129 0.4862 -0.0138
vt 0.1593 0.0611 0.4389
vt 0.2451 0.0457 0.4543
vt 0.4509 0.0491 0.4509
vt 0.0067 -0.3970 0.4933
vt 0.0016 -0.4984 0.4984
vt 0.0182 -0.4818 0.4818
vt 0.0156 0.4216 -0.0784
vt 0.0136 0.4177 -0.0823
vt -0.0305 0.4359 -0.0641
vt 0.0152 0.4658 -0.0342
vt 0.4870 -0.0130 0.0130
vt 0.3920 0.0045 -0.4955
vt 0.3840 0.0000 -0.5000
vt 0.2509 0.0000 -0.5000
vt 0.0374 0.0823 -0.4177
vt 0.1260 0.1656 -0.3344
vt 0.1057 0.1549 -0.3451
vt 0.1162 0.1767 -0.3233
vt 0.4614 0.0016 -0.4984
vt 0.4818 0.0182 -0.4818
vt 0.4984 0.0016 -0.4984
vt 0.5000 0.0000 -0.5000
vt 0.0459 0.0000 -0.5000
vt 0.0565 0.0033 -0.4967
vt 0.0000 0.1818 0.5000
vt 0.0000 -0.5000 0.5000
vt 0.2156 -0.2844 0.2844
vt -0.2425 0.2304 -0.2696
vt -0.0678 0.0616 -0.4384
vt -0.1435 0.0000 0.5000
vt 0.1530 0.3229 0.1771
vt -0.5000 0.0000 -0.5000
vt 0.3147 0.1853 0.1853
vt 0.0832 -0.0156 0.4168
vt 0.0000 -0.3149 0.5000
vt 0.0000 -0.5000 -0.5000
vt 0.0000 0.5000 -0.5000
vt 0.4958 -0.0042 -0.4958
vt -0.4943 -0.0000 -0.5000
vt -0.0035 -0.3213 0.4965
vt 0.2844 0.2156 -0.2844
vt -0.0716 0.1613 -0.3387
vt -0.2636 0.2364 -0.2636
vt 0.1853 0.3147 0.1853
vt -0.1931 0.3069 0.1931
vt 0.2131 0.0000 0.5000
vt 0.0000 -0.3783 -0.5000
vt 0.3069 0.1931 -0.1931
vt 0.2778 0.0424 -0.2222
vt 0.0000 0.2972 -0.5000
vt -0.2889 0.0020 0.4980
vt 0.0459 0.0717 0.4283
vt -0.4975 0.0025 0.4975
vt 0.1506 0.0516 0.4484
vt -0.2375 0.0378 0.4622
vt -0.0042 -0.4958 0.4958
vt 0.7094 0.6033 0.0000
vt 0.7103 0.6263 0.0000
vt 0.6998 0.6452 0.0000
vt 0.6121 0.6044 0.0000
vt 0.6364 0.5896 0.0000
vt 0.7144 0.6030 0.0000
vt 0.7125 0.4878 0.0000
vt 0.6390 0.5644 0.0000
vt 0.6789 0.5417 0.0000
vt 0.6982 0.6665 0.0000
vt 0.6977 0.6740 0.0000
vt 0.6939 0.6851 0.0000
vt 0.6997 0.6681 0.0000
vt 0.6934 0.6865 0.0000
vt 0.6798 0.7266 0.0000
vt 0.6693 0.7221 0.0000
vt 0.6202 0.6999 0.0000
vt 0.6297 0.7143 0.0000
vt 0.6055 0.7319 0.0000
vt 0.6062 0.6681 0.0000
vt 0.6267 0.6946 0.0000
vt 0.6154 0.6530 0.0000
vt 0.6154 0.6525 0.0000
vt 0.6149 0.6455 0.0000
vt 0.6750 0.5066 0.0000
vt 0.0420 -0.2198 0.4580
vt 0.0000 -0.4579 0.5000
vt 0.4846 -0.0154 0.0154
vt 0.1286 -0.1548 0.3714
vt 0.7148 0.2286 0.0000
vt 0.7233 0.2308 0.0000
vt 0.7625 0.3745 0.0000
vt 0.7740 0.4167 0.0000
vt 0.8252 0.3767 0.0000
vt 0.6308 0.0025 0.0000
vt 0.0243 0.0054 0.0000
vt 0.0217 0.0000 0.0000
vt 0.6604 0.0000 0.0000
vt 0.0139 0.4846 -0.0154
vt 0.0154 0.4846 -0.0154
vt 0.4307 0.0000 -0.5000
vt 0.6968 0.6851 0.0000
vt 0.0947 0.2007 -0.2993
vt 0.0945 0.2010 -0.2990
vt 0.3643 0.8815 0.0000
vt 0.6420 0.6420 0.0000
vt 0.4025 0.8486 0.0000
vt 0.0157 -0.2177 0.4843
vt 0.1662 -0.1806 0.3338
vt 0.0476 0.1638 0.4524
vt 0.0491 0.4509 0.4509
vt 0.0521 0.2479 0.4479
vt 0.1091 0.2647 0.3909
vt 0.0801 0.2171 -0.2829
vt 0.3849 0.1151 -0.3849
vt 0.6724 0.6578 0.0000
vt 0.6448 0.7117 0.0000
vt 0.6516 0.6957 0.0000
vt 0.0773 0.0000 0.0000
vt 0.1773 0.0299 0.0000
vt 0.4939 0.1248 0.0000
vt 0.4887 0.3949 0.0000
vt 0.3410 0.6820 0.0000
vt 0.9886 0.9886 0.0000
vt 0.8933 0.9205 0.0000
vt 0.7513 0.8191 0.0000
vt 0.4202 0.5826 0.0000
vt 0.4186 0.5814 0.0000
vt 0.4780 0.0114 0.0000
vt 0.9886 0.0114 0.0000
vt 0.4720 0.0114 0.0000
vt 0.4775 0.0000 0.0000
vt 0.2098 0.2937 0.0000
vt 0.0000 0.5522 0.0000
vt 0.2115 0.2916 0.0000
vt 0.3663 0.5082 0.0000
vt 1.0000 0.8984 0.0000
vt 0.9886 0.8893 0.0000
vt 1.0000 0.4615 0.0000
vt 0.9886 0.4624 0.0000
vt 0.0259 0.9741 0.0000
vt 0.0280 0.9752 0.0000
vt 0.0523 0.9874 0.0000
vt 0.0773 1.0000 0.0000
vt 0.0126 0.9575 0.0000
vt 0.0000 0.9417 0.0000
vt 0.3631 0.5084 0.0000
vt 0.0224 0.9697 0.0000
vt 0.1769 0.8231 0.0000
vt 0.3104 0.5706 0.0000
vt 0.3156 0.6312 0.0000
vt 0.2532 0.5064 0.0000
vt 0.2700 0.4964 0.0000
vt 0.5949 0.8102 0.0000
vt 0.6523 0.2685 0.0000
vt 0.5225 0.0000 0.0000
vt 0.6979 0.5673 0.0000
vt 0.6617 0.3496 0.0000
vt 0.7370 0.3864 0.0000
vt 0.7460 0.4121 0.0000
vt 0.7659 0.4689 0.0000
vt 0.7085 0.6312 0.0000
vt 0.7790 0.5064 0.0000
vt 1.0038 0.0012 0.0000
vt 1.0070 0.0000 0.0000
vt 1.0653 0.0000 0.0000
vt 0.8684 0.0512 0.0000
vt 0.6797 0.6820 0.0000
vt 0.7193 0.4926 0.0000
vt 0.4175 0.8102 0.0000
vt 0.0653 0.0000 0.0000
vt 0.6175 0.0000 0.0000
vt 0.6184 0.0085 0.0000
vt 0.6317 0.1386 0.0000
vt 0.6037 0.0000 0.0000
vt 0.1480 0.8686 0.0000
vt 0.6918 1.0000 0.0000
vt 0.6918 0.0000 0.0000
vt 0.6365 0.1075 0.0000
# 228 texture coords

g Pyramid001
usemtl wire_135006006
s 4
f 1/1/1 2/2/1 3/3/1 
s 8
f 4/4/2 5/5/2 1/1/2 6/6/2 
f 7/7/3 8/8/3 9/9/3 
f 10/10/4 11/11/5 12/12/6 13/13/6 
f 12/12/6 14/14/7 15/15/8 16/16/6 
f 12/12/6 16/16/6 13/13/6 
f 12/12/6 11/11/5 17/17/3 
s 32
f 1/1/9 5/18/9 18/19/9 19/20/9 
f 18/19/9 20/21/9 19/20/9 
s 4
f 2/2/1 17/12/1 7/22/1 3/3/1 
s 1
f 1/1/10 3/23/10 21/24/10 
s 32
f 2/25/9 19/20/9 20/21/9 17/26/9 
f 17/26/9 20/21/9 22/27/9 
s 16
f 23/28/2 14/29/2 12/22/2 24/30/2 
s off
f 25/31/11 26/32/11 27/33/11 
f 27/34/12 28/35/12 29/36/12 25/37/12 
f 30/38/13 31/39/13 32/40/13 
f 33/41/14 34/42/14 35/43/14 36/37/14 
f 37/44/15 36/37/15 35/43/15 
f 38/45/16 36/37/16 39/46/16 40/47/16 
f 33/48/17 30/49/17 25/31/17 
f 30/50/18 33/51/18 36/31/18 
f 36/31/19 41/52/19 3/53/19 
f 42/51/20 43/54/20 44/55/20 45/56/20 
f 46/57/21 47/58/21 48/59/21 
f 49/60/22 35/61/22 34/62/22 50/63/22 
f 41/64/14 36/37/14 37/44/14 
f 48/65/23 51/66/23 52/67/23 53/68/23 
f 48/65/23 53/68/23 36/31/23 
f 50/69/17 34/70/17 33/48/17 54/71/17 
f 51/72/22 48/73/22 47/74/22 
f 55/75/24 56/76/24 57/77/24 
f 52/78/25 55/79/25 53/80/25 
f 58/81/23 36/31/23 53/68/23 59/82/23 
f 60/32/26 40/83/26 39/84/26 61/31/26 
f 62/75/27 63/85/27 61/31/27 
f 61/37/28 58/86/28 59/87/28 62/79/28 
f 57/88/28 62/79/28 59/87/28 
f 63/89/29 60/90/29 61/37/29 
f 62/75/30 64/91/30 65/92/30 
f 62/79/31 57/88/31 56/93/31 
f 53/94/24 55/75/24 57/77/24 59/95/24 
f 58/81/23 39/96/23 36/31/23 
f 39/84/26 58/97/26 61/31/26 
f 32/98/32 66/32/32 67/99/32 
f 68/100/33 66/90/33 32/101/33 31/102/33 
f 67/103/13 26/90/13 25/37/13 30/38/13 
f 32/40/13 67/103/13 30/38/13 
f 68/104/18 31/105/18 30/50/18 36/31/18 
f 68/104/18 36/31/18 38/106/18 
f 69/107/20 70/108/20 44/55/20 43/54/20 
f 64/109/34 62/79/34 56/93/34 
s 2
f 56/110/35 55/111/35 52/112/35 66/113/35 
f 68/114/36 56/110/35 66/113/35 
f 64/115/37 56/110/35 65/116/37 
s off
f 65/92/38 63/85/38 62/75/38 
s 2
f 68/114/36 71/117/3 40/118/36 56/110/35 
f 52/112/35 51/119/39 46/120/36 72/121/36 
f 51/119/39 73/122/36 46/120/36 
f 74/123/36 45/124/3 75/125/3 
f 76/126/3 77/127/3 27/128/3 26/129/37 
f 76/126/3 26/129/37 78/130/37 
f 52/112/35 67/131/35 79/132/37 80/133/37 
f 80/133/37 66/113/35 52/112/35 
f 40/118/36 60/134/3 65/116/37 56/110/35 
s off
f 81/135/14 82/136/14 83/79/14 84/137/14 
f 81/135/14 84/137/14 20/138/14 
s 32
f 19/20/9 2/25/9 1/1/9 
s 1
f 35/139/10 49/140/10 85/141/10 21/24/10 
f 86/142/10 6/143/10 1/1/10 21/24/10 
f 86/142/10 21/24/10 85/141/10 
s 32
f 87/144/9 24/145/9 12/146/9 17/26/9 
f 87/144/9 17/26/9 22/27/9 
s 1
f 49/140/10 35/139/10 7/146/10 9/147/10 
f 21/24/10 3/23/10 7/146/10 35/139/10 
s off
f 2/148/23 84/149/23 83/75/23 48/65/23 
f 83/75/23 46/150/23 48/65/23 
f 2/148/23 48/65/23 36/31/23 
f 3/53/19 2/148/19 36/31/19 
s 2
f 46/120/36 83/151/3 72/121/36 
s off
f 88/152/40 33/48/40 89/153/40 
s 8
f 90/154/3 8/8/3 7/7/3 17/17/3 
f 90/154/41 90/154/3 17/17/3 11/11/5 
f 11/11/5 91/155/42 92/156/43 90/154/41 
s off
f 82/157/21 81/158/21 93/159/21 45/160/21 
f 45/160/21 93/159/21 94/161/21 95/162/21 
f 96/163/17 89/153/17 33/48/17 25/31/17 
f 96/163/17 25/31/17 29/164/17 
f 54/71/17 33/48/17 88/152/17 
s 8
f 90/154/3 90/154/41 8/8/3 
s off
f 42/41/21 45/160/21 95/162/21 
s 8
f 91/155/42 11/11/5 10/10/4 
s 2
f 97/165/37 78/130/37 26/129/37 52/112/35 
f 26/129/37 67/131/35 52/112/35 
f 52/112/35 72/121/36 74/123/36 70/166/37 
f 74/123/36 75/125/3 70/166/37 
f 97/165/37 52/112/35 70/166/37 98/167/35 
s 4
f 99/12/44 93/168/44 100/169/44 81/170/44 
f 99/12/44 81/170/44 20/171/44 18/172/44 
s 64
f 101/11/45 92/173/46 91/174/47 10/175/47 
f 101/11/45 10/175/47 13/176/48 16/177/49 
f 102/178/50 76/179/51 101/11/45 77/180/50 
f 77/180/50 101/11/45 103/12/52 104/181/50 
f 105/182/53 69/183/53 103/12/52 70/184/53 
f 70/184/53 103/12/52 101/11/45 15/185/53 
f 15/185/53 101/11/45 16/177/49 
f 8/186/54 92/173/46 106/187/55 9/188/56 
f 9/188/56 106/187/55 107/189/56 108/22/57 
f 108/22/57 107/189/56 76/179/51 
f 99/17/58 109/190/59 110/191/47 111/192/47 
f 99/17/58 111/192/47 93/193/47 
f 112/194/53 94/195/53 69/183/53 105/182/53 
f 105/182/53 70/184/53 15/185/53 14/196/53 
f 112/194/53 105/182/53 14/196/53 113/197/53 
f 109/190/59 113/197/53 14/196/53 23/198/60 
s 16
f 6/199/61 86/200/61 96/201/61 114/202/61 
f 4/203/61 6/199/61 114/202/61 29/204/61 
f 29/204/61 104/205/61 103/22/61 4/203/61 
s 64
f 104/181/50 108/22/57 76/179/51 102/178/50 
f 104/181/50 102/178/50 77/180/50 
s 2
f 85/206/62 49/207/62 50/208/62 54/209/62 
f 85/206/62 54/209/62 89/210/63 86/211/62 
f 96/212/62 86/211/62 89/210/63 
s 16
f 114/202/61 96/201/61 108/12/61 29/204/61 
f 108/12/61 104/205/61 29/204/61 
s 1
f 115/213/64 94/214/64 99/215/64 95/216/64 
f 99/215/64 18/217/64 5/218/64 4/219/64 
f 103/220/64 69/221/64 43/222/64 42/223/64 
f 4/219/64 103/220/64 42/223/64 99/215/64 
f 99/215/64 42/223/64 95/216/64 
s 2
f 50/208/62 49/207/62 9/224/62 54/209/62 
f 9/224/62 108/215/62 96/212/62 89/210/63 
f 9/224/62 89/210/63 54/209/62 
s 64
f 106/187/55 92/173/46 101/11/45 107/189/56 
f 101/11/45 76/179/51 107/189/56 
f 109/190/59 23/198/60 24/225/47 110/191/47 
f 87/226/47 93/193/47 111/192/47 
f 87/226/47 111/192/47 110/191/47 24/225/47 
s 4
f 93/168/44 87/227/44 22/228/44 100/169/44 
f 22/228/44 20/171/44 81/170/44 100/169/44 
s 64
f 113/197/53 109/190/59 99/17/58 112/194/53 
f 112/194/53 99/17/58 94/195/53 
s 1
f 95/216/64 42/223/64 43/222/64 115/213/64 
f 115/213/64 43/222/64 69/221/64 94/214/64 
# 80 polygons - 64 triangles

