# 3ds Max Wavefront OBJ Exporter v0.97b - (c)2007 guruware
# File Created: 17.09.2015 17:56:52

mtllib piedra 1.mtl

#
# object Hedra001
#

v  1.0878 6.8143 -1.1833
v  7.7342 4.2297 4.5368
v  9.4239 1.1575 -6.9034
v  14.8368 -0.5138 -10.4386
v  3.3548 2.0029 -9.4376
v  2.9231 -2.8518 -12.9837
v  -4.6298 -1.3585 -10.6191
v  -7.7407 1.4260 -10.4386
v  -4.1712 3.9225 -6.9034
v  -4.4667 4.8228 4.5368
v  -4.6685 -0.4173 8.0720
v  -3.2473 1.2746 9.1838
v  -3.9070 -7.0461 7.9507
v  3.4197 0.1135 8.4157
v  9.6140 -1.6462 8.0720
v  13.7327 -1.8363 -1.1833
v  16.0656 -7.5564 -10.4386
v  10.6347 -7.5564 6.6600
v  -4.6298 -8.2498 7.1101
v  1.5876 -7.6354 9.0302
v  2.6484 -6.6734 4.5368
v  6.9661 -10.6673 -6.9034
v  6.8104 -10.0054 -12.3570
v  0.1686 -10.5158 -1.1833
v  -5.8974 -7.8636 8.0720
v  -0.7917 -9.7456 4.5368
v  -4.4784 -9.7456 -6.9034
v  -4.6298 -7.6158 -10.2933
v  -6.4606 -4.8324 -9.8078
v  -8.0501 -7.5076 -1.1833
# 30 vertices

vn 0.4756 0.8646 -0.1619
vn 0.1988 0.9680 -0.1532
vn -0.1317 0.5923 -0.7949
vn 0.4052 0.5023 -0.7639
vn -0.4102 0.9083 -0.0821
vn -0.8007 0.3559 0.4819
vn 0.0868 -0.1528 0.9844
vn 0.2016 0.5515 0.8095
vn 0.9753 0.1702 0.1407
vn 0.9124 0.0609 0.4048
vn -0.2184 -0.4672 0.8568
vn -0.0492 -0.9742 -0.2202
vn 0.2777 -0.9527 -0.1236
vn 0.3353 -0.8429 0.4208
vn 0.5978 0.5778 0.5557
vn -0.2639 -0.9608 0.0851
vn -0.2143 -0.2002 -0.9560
vn -0.8248 -0.4947 -0.2740
vn -0.9603 0.1585 0.2295
vn -0.9456 -0.2178 -0.2418
vn 0.0096 0.8107 -0.5854
vn 0.1649 0.8108 -0.5615
vn 0.0951 0.7229 0.6844
vn 0.0452 0.9290 0.3673
vn 0.7976 0.5451 0.2584
vn 0.1419 0.9611 -0.2371
vn 0.0903 0.0575 0.9943
vn -0.0127 -0.2344 0.9721
vn 0.1421 -0.9725 0.1846
vn 0.9482 -0.1006 0.3012
vn 0.1637 -0.9235 0.3470
vn 0.7963 -0.6019 0.0591
vn -0.1357 -0.9625 -0.2349
vn -0.1198 -0.9860 -0.1162
vn -0.1741 -0.9718 -0.1593
vn -0.9328 -0.1986 0.3006
vn -0.2509 -0.0503 -0.9667
vn -0.5097 -0.1889 -0.8394
vn -0.9646 0.2602 0.0434
vn -0.7640 0.4768 0.4347
vn 0.1097 -0.1206 0.9866
vn -0.5543 -0.0788 0.8286
vn 0.0441 0.1619 -0.9858
vn 0.7405 0.3522 -0.5724
# 44 vertex normals

vt 0.0000 0.0000 0.5000
vt 0.2500 -0.1545 0.4045
vt 0.2500 0.1545 0.4045
vt 0.1545 0.4045 0.2500
vt 0.4045 0.2500 0.1545
vt -0.0000 -0.0000 0.5000
vt 0.4045 0.2500 -0.1545
vt 0.2500 0.1545 -0.4045
vt 0.1545 0.4045 -0.2500
vt -0.2500 0.1545 0.4045
vt -0.2500 -0.1545 0.4045
vt -0.1545 0.4045 -0.2500
vt -0.2500 0.1545 -0.4045
vt -0.4045 0.2500 -0.1545
vt 0.2500 -0.1545 -0.4045
vt 0.0000 0.0000 -0.5000
vt -0.4045 0.2500 0.1545
vt -0.1545 0.4045 0.2500
vt -0.0000 0.0000 0.5000
vt -0.2500 -0.1545 -0.4045
vt 0.1545 -0.4045 -0.2500
vt 0.4045 -0.2500 -0.1545
vt 0.0000 -0.0000 -0.5000
vt -0.4045 -0.2500 -0.1545
vt -0.1545 -0.4045 -0.2500
vt -0.1545 -0.4045 0.2500
vt 0.1545 -0.4045 0.2500
# 27 texture coords

g Hedra001
usemtl wire_088199225
s off
f 1/1/1 2/2/1 3/3/1 
f 3/4/2 4/3/2 5/5/2 
f 5/3/3 6/6/3 7/2/3 
f 7/7/4 8/8/4 9/9/4 
f 9/10/5 10/11/5 1/1/5 
f 10/12/6 11/13/6 12/14/6 
f 12/15/7 13/16/7 14/8/7 
f 14/17/8 15/10/8 2/18/8 
f 16/19/9 17/2/9 4/3/9 
f 15/10/10 18/11/10 16/19/10 
f 13/16/11 19/20/11 20/13/11 
f 20/21/12 21/15/12 18/22/12 
f 22/17/13 23/10/13 17/18/13 
f 21/15/14 24/23/14 22/8/14 
f 19/24/15 25/20/15 26/25/15 
f 26/20/16 27/13/16 24/23/16 
f 28/11/17 6/6/17 23/10/17 
f 27/21/18 29/15/18 28/22/18 
f 25/20/19 11/13/19 30/23/19 
f 30/23/20 8/8/20 29/15/20 
f 5/4/21 7/18/21 9/10/21 3/3/21 
f 3/3/22 9/10/22 1/1/22 
f 10/11/23 12/26/23 14/27/23 2/2/23 
f 10/11/24 2/2/24 1/1/24 
f 2/18/25 15/10/25 16/19/25 4/3/25 
f 2/18/26 4/3/26 3/4/26 
f 14/8/27 13/16/27 20/13/27 18/12/27 
f 14/8/28 18/12/28 15/9/28 
f 18/11/29 21/26/29 22/27/29 17/2/29 
f 18/11/30 17/2/30 16/19/30 
f 20/21/31 19/25/31 26/20/31 24/23/31 
f 20/21/32 24/23/32 21/15/32 
f 24/23/33 27/13/33 28/12/33 23/9/33 
f 24/23/34 23/9/34 22/8/34 
f 26/25/35 25/20/35 30/23/35 29/15/35 
f 26/25/36 29/15/36 27/21/36 
f 7/2/37 6/6/37 28/11/37 8/27/37 
f 29/26/38 8/27/38 28/11/38 
f 30/23/39 11/13/39 10/12/39 9/9/39 
f 30/23/40 9/9/40 8/8/40 
f 25/25/41 19/20/41 13/16/41 11/21/41 
f 11/21/42 13/16/42 12/15/42 
f 5/3/43 4/4/43 17/18/43 23/10/43 
f 5/3/44 23/10/44 6/6/44 
# 12 polygons - 32 triangles

