# 3ds Max Wavefront OBJ Exporter v0.97b - (c)2007 guruware
# File Created: 17.09.2015 18:00:13

mtllib piedra 3.mtl

#
# object Hedra001
#

v  -1.1624 8.7093 -7.4756
v  7.7342 4.2297 12.0267
v  6.9571 3.4872 -2.1069
v  21.6797 -0.5138 -8.7118
v  2.9885 7.5203 -9.3848
v  0.3690 1.0958 -19.4834
v  -4.6298 -1.3585 -15.2619
v  -7.7407 1.4260 -10.4386
v  -1.2196 4.0949 -8.0992
v  -4.4667 4.8228 4.5368
v  -4.6685 0.3711 8.0720
v  -0.1172 0.0004 13.4690
v  -3.9070 -7.0461 7.9507
v  3.4197 0.1135 8.4157
v  9.6140 -1.6462 8.0720
v  22.6395 -1.8363 6.9631
v  19.9635 -14.7283 -16.3751
v  10.6347 -3.8341 6.6600
v  -14.7681 -18.0437 7.1101
v  1.5876 -11.9006 9.0302
v  2.6484 -11.5552 16.6973
v  6.9661 -15.6940 -6.9034
v  6.8104 -10.0054 -24.8165
v  -10.4760 -14.7749 0.7794
v  -17.1109 -13.5472 8.0720
v  -23.3844 -9.7456 2.7989
v  -17.9471 -9.7456 0.2655
v  -15.6897 -10.0736 -10.2933
v  -14.4983 -4.8324 -8.8041
v  -14.6171 -3.2626 3.7633
# 30 vertices

vn 0.5738 0.8156 -0.0744
vn 0.3694 0.8835 0.2882
vn -0.6142 0.7282 -0.3040
vn -0.1343 0.8182 -0.5590
vn -0.9669 0.0459 -0.2511
vn -0.6491 0.4909 0.5811
vn 0.6207 -0.6624 0.4196
vn -0.1202 -0.5805 0.8053
vn 0.9942 -0.0834 -0.0679
vn 0.0649 -0.5196 0.8520
vn -0.1393 0.0621 0.9883
vn -0.6561 0.7525 0.0569
vn -0.1472 -0.9431 -0.2982
vn 0.0263 -0.9838 0.1773
vn -0.7163 -0.4813 0.5052
vn -0.3427 -0.5843 -0.7356
vn -0.5404 0.0884 -0.8368
vn -0.9390 0.2729 -0.2092
vn -0.4869 0.4353 0.7572
vn -0.6888 0.7186 -0.0963
vn -0.6356 0.5972 -0.4892
vn 0.3813 0.8810 0.2803
vn -0.1167 0.5077 0.8536
vn -0.1224 0.9537 0.2749
vn 0.4568 0.8031 0.3826
vn 0.2349 0.9699 -0.0639
vn 0.0798 0.0388 0.9961
vn -0.1191 -0.5770 0.8080
vn 0.6420 -0.6548 0.3989
vn 0.1336 -0.8739 0.4674
vn 0.2480 0.5313 -0.8101
vn -0.2764 -0.8719 0.4043
vn -0.2758 -0.9246 -0.2627
vn -0.1799 -0.9380 -0.2963
vn -0.9033 0.4219 0.0780
vn 0.1924 0.8902 0.4129
vn -0.6449 0.4788 -0.5957
vn -0.5067 0.3402 -0.7921
vn -0.6245 0.7796 0.0463
vn -0.4079 0.9073 0.1020
vn 0.0476 -0.0781 0.9958
vn -0.7644 -0.0889 0.6385
vn 0.4943 0.4683 -0.7324
vn 0.3427 0.7499 -0.5659
# 44 vertex normals

vt 0.0000 0.0000 0.5000
vt 0.2500 -0.1545 0.4045
vt 0.2500 0.1545 0.4045
vt 0.1545 0.4045 0.2500
vt 0.4045 0.2500 0.1545
vt -0.0000 -0.0000 0.5000
vt 0.4045 0.2500 -0.1545
vt 0.2500 0.1545 -0.4045
vt 0.1545 0.4045 -0.2500
vt -0.2500 0.1545 0.4045
vt -0.2500 -0.1545 0.4045
vt -0.1545 0.4045 -0.2500
vt -0.2500 0.1545 -0.4045
vt -0.4045 0.2500 -0.1545
vt 0.2500 -0.1545 -0.4045
vt 0.0000 0.0000 -0.5000
vt -0.4045 0.2500 0.1545
vt -0.1545 0.4045 0.2500
vt -0.0000 0.0000 0.5000
vt -0.2500 -0.1545 -0.4045
vt 0.1545 -0.4045 -0.2500
vt 0.4045 -0.2500 -0.1545
vt 0.0000 -0.0000 -0.5000
vt -0.4045 -0.2500 -0.1545
vt -0.1545 -0.4045 -0.2500
vt -0.1545 -0.4045 0.2500
vt 0.1545 -0.4045 0.2500
# 27 texture coords

g Hedra001
usemtl wire_088199225
s off
f 1/1/1 2/2/1 3/3/1 
f 3/4/2 4/3/2 5/5/2 
f 5/3/3 6/6/3 7/2/3 
f 7/7/4 8/8/4 9/9/4 
f 9/10/5 10/11/5 1/1/5 
f 10/12/6 11/13/6 12/14/6 
f 12/15/7 13/16/7 14/8/7 
f 14/17/8 15/10/8 2/18/8 
f 16/19/9 17/2/9 4/3/9 
f 15/10/10 18/11/10 16/19/10 
f 13/16/11 19/20/11 20/13/11 
f 20/21/12 21/15/12 18/22/12 
f 22/17/13 23/10/13 17/18/13 
f 21/15/14 24/23/14 22/8/14 
f 19/24/15 25/20/15 26/25/15 
f 26/20/16 27/13/16 24/23/16 
f 28/11/17 6/6/17 23/10/17 
f 27/21/18 29/15/18 28/22/18 
f 25/20/19 11/13/19 30/23/19 
f 30/23/20 8/8/20 29/15/20 
f 5/4/21 7/18/21 9/10/21 1/1/21 
f 3/3/22 5/4/22 1/1/22 
f 10/11/23 12/26/23 14/27/23 2/2/23 
f 10/11/24 2/2/24 1/1/24 
f 15/10/25 16/19/25 4/3/25 2/18/25 
f 2/18/26 4/3/26 3/4/26 
f 14/8/27 13/16/27 20/13/27 18/12/27 
f 14/8/28 18/12/28 15/9/28 
f 18/11/29 21/26/29 22/27/29 17/2/29 
f 18/11/30 17/2/30 16/19/30 
f 20/21/31 19/25/31 26/20/31 21/15/31 
f 26/20/32 24/23/32 21/15/32 
f 27/13/33 28/12/33 23/9/33 24/23/33 
f 24/23/34 23/9/34 22/8/34 
f 30/23/35 29/15/35 27/21/35 25/20/35 
f 26/25/36 25/20/36 27/21/36 
f 7/2/37 6/6/37 28/11/37 8/27/37 
f 29/26/38 8/27/38 28/11/38 
f 30/23/39 11/13/39 10/12/39 9/9/39 
f 30/23/40 9/9/40 8/8/40 
f 25/25/41 19/20/41 13/16/41 11/21/41 
f 11/21/42 13/16/42 12/15/42 
f 4/4/43 17/18/43 23/10/43 6/6/43 
f 5/3/44 4/4/44 6/6/44 
# 12 polygons - 32 triangles

