# 3ds Max Wavefront OBJ Exporter v0.97b - (c)2007 guruware
# File Created: 17.09.2015 18:02:26

mtllib piedra 5.mtl

#
# object Hedra001
#

v  -1.1624 2.7954 -3.7121
v  7.7342 1.1575 4.4998
v  6.9571 3.4872 -2.1069
v  13.9992 -0.5138 -3.1819
v  2.9885 2.2208 -5.4678
v  -8.8476 1.0958 -4.2761
v  -4.9371 -1.3585 -6.9669
v  -7.7407 -2.7982 -4.9854
v  -1.2196 4.0949 -8.0992
v  -4.4667 4.8228 4.5368
v  -4.6685 0.3711 8.0720
v  0.0365 0.0004 4.2524
v  -3.9070 -7.0461 7.9507
v  3.4197 0.1135 8.4157
v  9.6140 -1.6462 8.0720
v  12.6549 -1.8363 1.4331
v  10.7468 -7.3551 -3.3183
v  10.6347 -3.8341 6.6600
v  -6.4731 -11.3616 4.9596
v  1.5876 -8.6748 5.4204
v  2.6484 -7.6381 3.7940
v  6.9661 -7.3991 -1.8342
v  3.7690 -7.3172 -4.4795
v  -10.4760 -8.4769 1.6242
v  -11.2737 -11.3966 3.1412
v  -15.5503 -9.7456 0.8020
v  -12.5707 -9.7456 -2.9603
v  -10.7742 -7.9230 -3.3040
v  -9.1220 -4.8324 -5.5783
v  -14.6171 -3.2626 3.7633
# 30 vertices

vn -0.1471 0.9273 0.3443
vn 0.3078 0.7115 -0.6316
vn 0.1368 -0.6248 0.7687
vn -0.6480 0.2960 -0.7018
vn 0.7838 0.5981 0.1670
vn 0.5710 0.4945 0.6553
vn -0.6246 0.6073 0.4910
vn 0.2615 0.8213 0.5070
vn 0.8935 -0.4275 0.1378
vn 0.8996 0.1566 0.4076
vn 0.1652 -0.6263 0.7619
vn 0.4835 -0.8462 -0.2241
vn -0.0003 -0.9995 -0.0305
vn 0.0628 -0.9980 0.0058
vn 0.3313 -0.3710 -0.8675
vn 0.2132 -0.9623 0.1689
vn -0.0765 -0.0907 -0.9929
vn 0.5792 -0.6609 -0.4773
vn -0.3253 -0.2043 0.9233
vn -0.6530 0.5840 -0.4823
vn 0.5655 0.1250 -0.8153
vn -0.0131 0.9407 -0.3390
vn -0.1055 0.5210 0.8470
vn 0.2853 0.9510 -0.1194
vn 0.6292 0.7098 0.3166
vn 0.5070 0.8298 0.2330
vn 0.1589 -0.3480 0.9239
vn -0.1191 -0.5770 0.8080
vn 0.2703 -0.9239 0.2710
vn 0.8780 -0.4482 0.1680
vn 0.2473 -0.5661 -0.7864
vn 0.1334 -0.8729 -0.4694
vn 0.1352 -0.9837 -0.1187
vn 0.0447 -0.9954 -0.0848
vn -0.9773 0.1866 -0.1006
vn -0.7657 0.2144 -0.6064
vn 0.3632 -0.0661 0.9294
vn 0.8817 -0.1398 0.4506
vn -0.6245 0.7796 0.0463
vn -0.7189 0.4353 -0.5419
vn -0.4731 -0.1572 0.8669
vn 0.6319 0.0522 0.7733
vn 0.0791 0.0707 -0.9944
vn -0.0114 -0.6680 -0.7441
# 44 vertex normals

vt 0.0000 0.0000 0.5000
vt 0.2500 -0.1545 0.4045
vt 0.2500 0.1545 0.4045
vt 0.1545 0.4045 0.2500
vt 0.4045 0.2500 0.1545
vt -0.0000 -0.0000 0.5000
vt 0.4045 0.2500 -0.1545
vt 0.2500 0.1545 -0.4045
vt 0.1545 0.4045 -0.2500
vt -0.2500 0.1545 0.4045
vt -0.2500 -0.1545 0.4045
vt -0.1545 0.4045 -0.2500
vt -0.2500 0.1545 -0.4045
vt -0.4045 0.2500 -0.1545
vt 0.2500 -0.1545 -0.4045
vt 0.0000 0.0000 -0.5000
vt -0.4045 0.2500 0.1545
vt -0.1545 0.4045 0.2500
vt -0.0000 0.0000 0.5000
vt -0.2500 -0.1545 -0.4045
vt 0.1545 -0.4045 -0.2500
vt 0.4045 -0.2500 -0.1545
vt 0.0000 -0.0000 -0.5000
vt -0.4045 -0.2500 -0.1545
vt -0.1545 -0.4045 -0.2500
vt -0.1545 -0.4045 0.2500
vt 0.1545 -0.4045 0.2500
# 27 texture coords

g Hedra001
usemtl wire_088199225
s off
f 1/1/1 2/2/1 3/3/1 
f 3/4/2 4/3/2 5/5/2 
f 5/3/3 6/6/3 7/2/3 
f 7/7/4 8/8/4 9/9/4 
f 9/10/5 10/11/5 1/1/5 
f 10/12/6 11/13/6 12/14/6 
f 12/15/7 13/16/7 14/8/7 
f 14/17/8 15/10/8 2/18/8 
f 16/19/9 17/2/9 4/3/9 
f 15/10/10 18/11/10 16/19/10 
f 13/16/11 19/20/11 20/13/11 
f 20/21/12 21/15/12 18/22/12 
f 22/17/13 23/10/13 17/18/13 
f 21/15/14 24/23/14 22/8/14 
f 19/24/15 25/20/15 26/25/15 
f 26/20/16 27/13/16 24/23/16 
f 28/11/17 6/6/17 23/10/17 
f 27/21/18 29/15/18 28/22/18 
f 25/20/19 11/13/19 30/23/19 
f 30/23/20 8/8/20 29/15/20 
f 5/4/21 7/18/21 9/10/21 1/1/21 
f 3/3/22 5/4/22 1/1/22 
f 10/11/23 12/26/23 14/27/23 2/2/23 
f 10/11/24 2/2/24 1/1/24 
f 2/18/25 15/10/25 16/19/25 4/3/25 
f 2/18/26 4/3/26 3/4/26 
f 14/8/27 13/16/27 20/13/27 18/12/27 
f 14/8/28 18/12/28 15/9/28 
f 18/11/29 21/26/29 22/27/29 17/2/29 
f 18/11/30 17/2/30 16/19/30 
f 19/25/31 26/20/31 24/23/31 20/21/31 
f 20/21/32 24/23/32 21/15/32 
f 27/13/33 28/12/33 23/9/33 24/23/33 
f 24/23/34 23/9/34 22/8/34 
f 26/25/35 25/20/35 30/23/35 29/15/35 
f 26/25/36 29/15/36 27/21/36 
f 8/27/37 7/2/37 6/6/37 29/26/37 
f 29/26/38 6/6/38 28/11/38 
f 30/23/39 11/13/39 10/12/39 9/9/39 
f 30/23/40 9/9/40 8/8/40 
f 25/25/41 19/20/41 13/16/41 11/21/41 
f 11/21/42 13/16/42 12/15/42 
f 4/4/43 17/18/43 23/10/43 6/6/43 
f 5/3/44 4/4/44 6/6/44 
# 12 polygons - 32 triangles

