# 3ds Max Wavefront OBJ Exporter v0.97b - (c)2007 guruware
# File Created: 17.09.2015 17:58:53

mtllib piedra 2.mtl

#
# object Hedra001
#

v  -1.1624 8.7093 -7.4756
v  7.7342 4.2297 4.5368
v  6.9571 3.4872 -2.1069
v  14.8368 -0.5138 -2.7378
v  2.9885 7.5203 -9.3848
v  2.9231 -2.8518 -12.9837
v  -4.6298 -1.3585 -10.6191
v  -7.7407 1.4260 -10.4386
v  -1.2196 4.0949 -8.0992
v  -4.4667 4.8228 4.5368
v  -4.6685 0.3711 8.0720
v  -1.7465 0.0004 6.4088
v  -3.9070 -7.0461 7.9507
v  3.4197 0.1135 8.4157
v  9.6140 -1.6462 8.0720
v  13.7327 -1.8363 -1.1833
v  13.7722 -14.7283 -11.7045
v  10.6347 -3.8341 6.6600
v  -4.6298 -11.2848 7.1101
v  1.5876 -11.9006 9.0302
v  2.6484 -11.5552 4.5368
v  6.9661 -15.6940 -6.9034
v  6.8104 -10.0054 -12.3570
v  0.1686 -14.7749 -2.3706
v  -5.8974 -7.8636 8.0720
v  -0.7917 -9.7456 4.5368
v  -4.4784 -9.7456 -6.9034
v  -4.6298 -7.6158 -10.2933
v  -6.4606 -4.8324 -9.8078
v  -5.9276 -3.2626 0.9392
# 30 vertices

vn 0.6059 0.7797 -0.1580
vn 0.4552 0.8605 0.2286
vn -0.2247 0.3207 -0.9202
vn 0.2122 0.2974 -0.9309
vn -0.9669 0.0459 -0.2511
vn 0.4678 0.5365 0.7023
vn -0.3510 0.3016 0.8865
vn 0.2016 0.5515 0.8095
vn 0.8795 -0.2993 0.3700
vn 0.9025 0.1640 0.3983
vn -0.3046 -0.1351 0.9429
vn 0.6769 -0.7287 0.1038
vn -0.3764 -0.6465 -0.6636
vn 0.1297 -0.9157 0.3803
vn -0.5632 0.0236 -0.8260
vn -0.8151 -0.5164 0.2627
vn -0.2143 -0.2002 -0.9560
vn -0.8248 -0.4947 -0.2740
vn -0.9842 0.1469 0.0989
vn -0.9783 -0.1924 0.0766
vn -0.5582 0.4163 -0.7177
vn 0.3813 0.8810 0.2803
vn -0.0809 0.5495 0.8316
vn 0.0460 0.9467 0.3189
vn 0.8109 0.3936 0.4330
vn 0.4380 0.8863 -0.1503
vn 0.0798 0.0388 0.9961
vn -0.1191 -0.5770 0.8080
vn 0.5063 -0.7124 0.4860
vn 0.9217 -0.2436 0.3020
vn -0.6330 -0.7733 -0.0357
vn 0.6706 -0.7348 0.1018
vn -0.2811 -0.7905 -0.5441
vn -0.4957 -0.6081 -0.6201
vn -0.7572 -0.6475 -0.0859
vn -0.9328 -0.1986 0.3006
vn -0.2509 -0.0503 -0.9667
vn -0.5097 -0.1889 -0.8394
vn -0.9593 0.2398 -0.1494
vn -0.4663 0.7892 0.3995
vn 0.0940 -0.0816 0.9922
vn 0.4979 0.0369 0.8665
vn 0.5310 0.3384 -0.7769
vn 0.5990 0.2591 -0.7577
# 44 vertex normals

vt 0.0000 0.0000 0.5000
vt 0.2500 -0.1545 0.4045
vt 0.2500 0.1545 0.4045
vt 0.1545 0.4045 0.2500
vt 0.4045 0.2500 0.1545
vt -0.0000 -0.0000 0.5000
vt 0.4045 0.2500 -0.1545
vt 0.2500 0.1545 -0.4045
vt 0.1545 0.4045 -0.2500
vt -0.2500 0.1545 0.4045
vt -0.2500 -0.1545 0.4045
vt -0.1545 0.4045 -0.2500
vt -0.2500 0.1545 -0.4045
vt -0.4045 0.2500 -0.1545
vt 0.2500 -0.1545 -0.4045
vt 0.0000 0.0000 -0.5000
vt -0.4045 0.2500 0.1545
vt -0.1545 0.4045 0.2500
vt -0.0000 0.0000 0.5000
vt -0.2500 -0.1545 -0.4045
vt 0.1545 -0.4045 -0.2500
vt 0.4045 -0.2500 -0.1545
vt 0.0000 -0.0000 -0.5000
vt -0.4045 -0.2500 -0.1545
vt -0.1545 -0.4045 -0.2500
vt -0.1545 -0.4045 0.2500
vt 0.1545 -0.4045 0.2500
# 27 texture coords

g Hedra001
usemtl wire_088199225
s off
f 1/1/1 2/2/1 3/3/1 
f 3/4/2 4/3/2 5/5/2 
f 5/3/3 6/6/3 7/2/3 
f 7/7/4 8/8/4 9/9/4 
f 9/10/5 10/11/5 1/1/5 
f 10/12/6 11/13/6 12/14/6 
f 12/15/7 13/16/7 14/8/7 
f 14/17/8 15/10/8 2/18/8 
f 16/19/9 17/2/9 4/3/9 
f 15/10/10 18/11/10 16/19/10 
f 13/16/11 19/20/11 20/13/11 
f 20/21/12 21/15/12 18/22/12 
f 22/17/13 23/10/13 17/18/13 
f 21/15/14 24/23/14 22/8/14 
f 19/24/15 25/20/15 26/25/15 
f 26/20/16 27/13/16 24/23/16 
f 28/11/17 6/6/17 23/10/17 
f 27/21/18 29/15/18 28/22/18 
f 25/20/19 11/13/19 30/23/19 
f 30/23/20 8/8/20 29/15/20 
f 5/4/21 7/18/21 9/10/21 1/1/21 
f 3/3/22 5/4/22 1/1/22 
f 10/11/23 12/26/23 14/27/23 2/2/23 
f 10/11/24 2/2/24 1/1/24 
f 2/18/25 15/10/25 16/19/25 4/3/25 
f 2/18/26 4/3/26 3/4/26 
f 14/8/27 13/16/27 20/13/27 18/12/27 
f 14/8/28 18/12/28 15/9/28 
f 18/11/29 21/26/29 22/27/29 17/2/29 
f 18/11/30 17/2/30 16/19/30 
f 20/21/31 19/25/31 26/20/31 24/23/31 
f 20/21/32 24/23/32 21/15/32 
f 24/23/33 27/13/33 28/12/33 23/9/33 
f 24/23/34 23/9/34 22/8/34 
f 26/25/35 25/20/35 30/23/35 29/15/35 
f 26/25/36 29/15/36 27/21/36 
f 7/2/37 6/6/37 28/11/37 8/27/37 
f 29/26/38 8/27/38 28/11/38 
f 30/23/39 11/13/39 10/12/39 9/9/39 
f 30/23/40 9/9/40 8/8/40 
f 25/25/41 19/20/41 13/16/41 11/21/41 
f 11/21/42 13/16/42 12/15/42 
f 5/3/43 4/4/43 17/18/43 23/10/43 
f 5/3/44 23/10/44 6/6/44 
# 12 polygons - 32 triangles

